<mxfile host="app.diagrams.net" modified="2024-01-01T00:00:00.000Z" agent="5.0" etag="" version="" type="device">
  <diagram name="Global System Architecture" id="global-arch">
    <mxGraphModel dx="1422" dy="794" grid="1" gridSize="10" guides="1" tooltips="1" connect="1" arrows="1" fold="1" page="1" pageScale="1" pageWidth="827" pageHeight="1169" math="0" shadow="0">
      <root>
        <mxCell id="0" />
        <mxCell id="1" parent="0" />
        
        <!-- Actors -->
        <mxCell id="actor-odoo-user" value="Odoo User" style="shape=umlActor;verticalLabelPosition=bottom;verticalAlign=top;html=1;outlineConnect=0;" vertex="1" parent="1">
          <mxGeometry x="50" y="100" width="30" height="60" as="geometry" />
        </mxCell>
        <mxCell id="actor-sys-admin" value="System Admin" style="shape=umlActor;verticalLabelPosition=bottom;verticalAlign=top;html=1;outlineConnect=0;" vertex="1" parent="1">
          <mxGeometry x="50" y="300" width="30" height="60" as="geometry" />
        </mxCell>
        <mxCell id="actor-ext-system" value="External System" style="shape=umlActor;verticalLabelPosition=bottom;verticalAlign=top;html=1;outlineConnect=0;" vertex="1" parent="1">
          <mxGeometry x="50" y="500" width="30" height="60" as="geometry" />
        </mxCell>
        
        <!-- Odoo Environment -->
        <mxCell id="odoo-env" value="Odoo Environment" style="swimlane;fontStyle=1;align=center;verticalAlign=top;childLayout=stackLayout;horizontal=1;startSize=26;horizontalStack=0;resizeParent=1;resizeParentMax=0;resizeLast=0;collapsible=1;marginBottom=0;" vertex="1" parent="1">
          <mxGeometry x="200" y="80" width="200" height="120" as="geometry" />
        </mxCell>
        <mxCell id="uc-view-dep" value="View Module Dependencies" style="ellipse;whiteSpace=wrap;html=1;" vertex="1" parent="odoo-env">
          <mxGeometry x="10" y="30" width="80" height="40" as="geometry" />
        </mxCell>
        <mxCell id="uc-filter-mod" value="Filter Modules" style="ellipse;whiteSpace=wrap;html=1;" vertex="1" parent="odoo-env">
          <mxGeometry x="100" y="30" width="80" height="40" as="geometry" />
        </mxCell>
        <mxCell id="uc-analyze-dep" value="Analyze Dependencies" style="ellipse;whiteSpace=wrap;html=1;" vertex="1" parent="odoo-env">
          <mxGeometry x="10" y="75" width="80" height="40" as="geometry" />
        </mxCell>
        <mxCell id="uc-export-graph" value="Export Graph Data" style="ellipse;whiteSpace=wrap;html=1;" vertex="1" parent="odoo-env">
          <mxGeometry x="100" y="75" width="80" height="40" as="geometry" />
        </mxCell>
        
        <!-- Microservices -->
        <mxCell id="microservices" value="Microservices" style="swimlane;fontStyle=1;align=center;verticalAlign=top;childLayout=stackLayout;horizontal=1;startSize=26;horizontalStack=0;resizeParent=1;resizeParentMax=0;resizeLast=0;collapsible=1;marginBottom=0;" vertex="1" parent="1">
          <mxGeometry x="200" y="250" width="400" height="200" as="geometry" />
        </mxCell>
        
        <!-- Graph Sync Service -->
        <mxCell id="graph-sync" value="Graph Sync Service" style="swimlane;fontStyle=1;align=center;verticalAlign=top;childLayout=stackLayout;horizontal=1;startSize=26;horizontalStack=0;resizeParent=1;resizeParentMax=0;resizeLast=0;collapsible=1;marginBottom=0;" vertex="1" parent="microservices">
          <mxGeometry x="10" y="30" width="180" height="80" as="geometry" />
        </mxCell>
        <mxCell id="uc-fetch-dep" value="Fetch Module Dependencies" style="ellipse;whiteSpace=wrap;html=1;" vertex="1" parent="graph-sync">
          <mxGeometry x="10" y="30" width="70" height="40" as="geometry" />
        </mxCell>
        <mxCell id="uc-health1" value="Health Check" style="ellipse;whiteSpace=wrap;html=1;" vertex="1" parent="graph-sync">
          <mxGeometry x="90" y="30" width="70" height="40" as="geometry" />
        </mxCell>
        
        <!-- Neo4j Sync Service -->
        <mxCell id="neo4j-sync" value="Neo4j Sync Service" style="swimlane;fontStyle=1;align=center;verticalAlign=top;childLayout=stackLayout;horizontal=1;startSize=26;horizontalStack=0;resizeParent=1;resizeParentMax=0;resizeLast=0;collapsible=1;marginBottom=0;" vertex="1" parent="microservices">
          <mxGeometry x="210" y="30" width="180" height="80" as="geometry" />
        </mxCell>
        <mxCell id="uc-ingest" value="Ingest Module Data" style="ellipse;whiteSpace=wrap;html=1;" vertex="1" parent="neo4j-sync">
          <mxGeometry x="10" y="30" width="70" height="40" as="geometry" />
        </mxCell>
        <mxCell id="uc-detect-circular" value="Detect Circular Dependencies" style="ellipse;whiteSpace=wrap;html=1;" vertex="1" parent="neo4j-sync">
          <mxGeometry x="90" y="30" width="70" height="40" as="geometry" />
        </mxCell>
        
        <!-- Neo4j Database -->
        <mxCell id="neo4j-db" value="Neo4j Database" style="swimlane;fontStyle=1;align=center;verticalAlign=top;childLayout=stackLayout;horizontal=1;startSize=26;horizontalStack=0;resizeParent=1;resizeParentMax=0;resizeLast=0;collapsible=1;marginBottom=0;" vertex="1" parent="1">
          <mxGeometry x="200" y="500" width="200" height="80" as="geometry" />
        </mxCell>
        <mxCell id="uc-store-graph" value="Store Module Graph" style="ellipse;whiteSpace=wrap;html=1;" vertex="1" parent="neo4j-db">
          <mxGeometry x="10" y="30" width="80" height="40" as="geometry" />
        </mxCell>
        <mxCell id="uc-query-dep" value="Query Dependencies" style="ellipse;whiteSpace=wrap;html=1;" vertex="1" parent="neo4j-db">
          <mxGeometry x="100" y="30" width="80" height="40" as="geometry" />
        </mxCell>
        
        <!-- Connections -->
        <mxCell id="conn1" value="" style="endArrow=none;html=1;rounded=0;" edge="1" parent="1" source="actor-odoo-user" target="uc-view-dep">
          <mxGeometry width="50" height="50" relative="1" as="geometry">
            <mxPoint x="100" y="130" as="sourcePoint" />
            <mxPoint x="200" y="120" as="targetPoint" />
          </mxGeometry>
        </mxCell>
        <mxCell id="conn2" value="" style="endArrow=none;html=1;rounded=0;" edge="1" parent="1" source="actor-sys-admin" target="uc-health1">
          <mxGeometry width="50" height="50" relative="1" as="geometry">
            <mxPoint x="100" y="330" as="sourcePoint" />
            <mxPoint x="300" y="310" as="targetPoint" />
          </mxGeometry>
        </mxCell>
        <mxCell id="conn3" value="" style="endArrow=none;html=1;rounded=0;" edge="1" parent="1" source="actor-ext-system" target="uc-fetch-dep">
          <mxGeometry width="50" height="50" relative="1" as="geometry">
            <mxPoint x="100" y="530" as="sourcePoint" />
            <mxPoint x="250" y="300" as="targetPoint" />
          </mxGeometry>
        </mxCell>
        
      </root>
    </mxGraphModel>
  </diagram>
</mxfile>